HIERARCHY
ROOT Hips
{
    OFFSET 0.000000 0.000000 0.000000
    CHANNELS 6 Xposition Yposition Zposition Zrotation Xrotation Yrotation
        JOINT Spine1
        {
            OFFSET -0.000000 23.269398 0.000000
            CHANNELS 3 Zrotation Xrotation Yrotation
            JOINT Neck
            {
                OFFSET -0.000000 18.032967 0.000000
                CHANNELS 3 Zrotation Xrotation Yrotation
                JOINT Head
                {
                    OFFSET -0.000000 13.091072 1.689171
                    CHANNELS 3 Zrotation Xrotation Yrotation
                    End Site
                    {
                        OFFSET -0.000000 16.891708 0.000000
                    }
                }
            }
            JOINT LeftShoulder
            {
                OFFSET 3.336773 14.146137 -0.012206
                CHANNELS 3 Zrotation Xrotation Yrotation
                JOINT LeftArm
                {
                    OFFSET 11.765518 0.000000 0.000000
                    CHANNELS 3 Zrotation Xrotation Yrotation
                    JOINT LeftForeArm
                    {
                        OFFSET 25.163450 0.000000 0.000000
                        CHANNELS 3 Zrotation Xrotation Yrotation
                        JOINT LeftHand
                        {
                            OFFSET 21.783554 0.000000 0.000000
                            CHANNELS 3 Zrotation Xrotation Yrotation
                            End Site
                            {
                                OFFSET 12.668781 0.000000 0.000000
                            }
                        }
                    }
                }
            }
            JOINT RightShoulder
            {
                OFFSET -3.409204 14.146137 -0.012206
                CHANNELS 3 Zrotation Xrotation Yrotation
                JOINT RightArm
                {
                    OFFSET -11.765518 0.000000 0.000000
                    CHANNELS 3 Zrotation Xrotation Yrotation
                    JOINT RightForeArm
                    {
                        OFFSET -25.163450 0.000000 0.000000
                        CHANNELS 3 Zrotation Xrotation Yrotation
                        JOINT RightHand
                        {
                            OFFSET -21.783554 0.000000 0.000000
                            CHANNELS 3 Zrotation Xrotation Yrotation
                            End Site
                            {
                                OFFSET -12.668781 0.000000 0.000000
                            }
                        }
                    }
                }
            }
        }
        JOINT LeftUpLeg
    {
        OFFSET 8.445854 0.000000 0.000000
        CHANNELS 3 Zrotation Xrotation Yrotation
        JOINT LeftLeg
        {
            OFFSET -0.000000 -40.674755 0.000000
            CHANNELS 3 Zrotation Xrotation Yrotation
            JOINT LeftFoot
            {
                OFFSET -0.000000 -37.111794 0.000000
                CHANNELS 3 Zrotation Xrotation Yrotation
                JOINT LeftToeBase
                {
                    OFFSET -0.000000 -5.489805 12.668781
                    CHANNELS 3 Zrotation Xrotation Yrotation
                    End Site
                    {
                        OFFSET -0.000000 0.000000 3.378341
                    }
                }
            }
        }
    }
    JOINT RightUpLeg
    {
        OFFSET -8.445854 0.000000 0.000000
        CHANNELS 3 Zrotation Xrotation Yrotation
        JOINT RightLeg
        {
            OFFSET -0.000000 -40.674755 0.000000
            CHANNELS 3 Zrotation Xrotation Yrotation
            JOINT RightFoot
            {
                OFFSET -0.000000 -37.111794 0.000000
                CHANNELS 3 Zrotation Xrotation Yrotation
                JOINT RightToeBase
                {
                    OFFSET -0.000000 -5.489805 12.668781
                    CHANNELS 3 Zrotation Xrotation Yrotation
                    End Site
                    {
                        OFFSET -0.000000 0.000000 3.378341
                    }
                }
            }
        }
    }
}
MOTION
Frames:    11
Frame Time:    0.008333
95.431343    83.158386    126.858543    -1.641973    0.245975    -101.065010    3.792357    7.075724    2.818565    -8.126697    4.342649    29.767483    -2.573692    -11.081861    29.380625    -1.566983    8.369150    11.332276    -55.964264    32.056404    -27.164957    6.229090    -0.166651    -22.935024    -2.757543    1.259292    -6.684835    -3.794783    9.013606    -4.515254    52.613853    41.672203    24.346203    -6.606495    -1.140764    30.110317    -4.208227    0.408268    6.254298    5.362890    -13.819015    -46.072510    -7.992121    6.696801    61.729538    -3.671240    4.478178    19.306889    -0.999414    0.610436    4.064300    6.728540    3.601753    -2.775631    -3.772348    1.775856    -1.609926    -24.888742    -0.080345    1.609377    15.121964    -23.655003    -5.687676    
95.444046    83.137421    126.868607    -1.519778    0.162090    -101.051949    3.736440    6.939272    2.818281    -8.130301    4.339404    29.759192    -2.559649    -11.085148    29.371431    -1.561613    8.367592    11.327644    -55.985111    32.052139    -27.155310    6.234210    -0.156915    -22.936893    -2.735831    1.269689    -6.719805    -3.791473    9.017851    -4.520745    52.618080    41.660053    24.374153    -6.124586    -1.472045    30.013288    -4.710772    -0.123877    7.168751    5.287110    -13.985129    -46.070942    -8.010839    6.720954    61.738857    -3.337885    4.344850    19.317516    -0.938789    0.575953    3.821945    6.664713    3.444096    -2.785116    -3.753341    1.797468    -1.610734    -26.106779    0.327440    1.839570    15.804647    -24.755417    -5.876405    
95.476982    83.145996    126.816437    -1.534062    0.268432    -101.131500    3.835714    6.963962    2.893117    -8.123081    4.362941    29.752163    -2.582829    -11.107808    29.363638    -1.564710    8.374418    11.340881    -55.977795    32.060295    -27.160337    6.228992    -0.174962    -22.943251    -2.782192    1.253688    -6.718329    -3.797251    9.022076    -4.519181    52.645882    41.658695    24.363914    -6.111367    -1.488775    30.006470    -4.584501    -0.138158    7.208763    5.498482    -13.958007    -45.988792    -8.078587    6.673498    61.736908    -3.656545    4.472693    19.310894    -1.007206    0.600917    4.067159    6.840919    3.442689    -2.652049    -3.851957    1.841501    -1.670893    -24.917189    -0.088843    1.624325    15.133298    -23.673552    -5.684604    
95.476326    83.144989    126.816368    -1.531611    0.266587    -101.126137    3.836866    6.967216    2.881835    -8.126097    4.355474    29.751972    -2.576186    -11.113758    29.363214    -1.560650    8.372907    11.337508    -55.995628    32.051739    -27.157707    6.236334    -0.165909    -22.944471    -2.778507    1.263765    -6.706129    -3.795172    9.019998    -4.521007    52.665760    41.654068    24.351383    -6.113061    -1.496229    30.006451    -4.444643    -0.137059    7.228426    5.487581    -13.964918    -45.997375    -8.083970    6.676804    61.743782    -3.337938    4.336141    19.329477    -0.922018    0.602605    3.828506    6.837619    3.441073    -2.651306    -3.845486    1.840762    -1.667167    -24.982269    -0.058808    1.628848    15.168735    -23.730619    -5.696468    
95.485893    83.124725    126.824211    -1.412562    0.179858    -101.130287    3.782442    6.833694    2.895581    -8.124181    4.340586    29.750437    -2.569165    -11.086148    29.363565    -1.560384    8.379337    11.344469    -56.008656    32.043106    -27.159761    6.233513    -0.160387    -22.940510    -2.783707    1.269216    -6.724357    -3.788753    9.016275    -4.531264    52.687275    41.650902    24.336538    -6.121245    -1.506844    30.000502    -4.239323    -0.134092    7.265612    5.421327    -14.121964    -45.974731    -8.097641    6.704586    61.724884    -3.349918    4.346140    19.349474    -0.932623    0.579140    3.810912    6.778023    3.285912    -2.652240    -3.838329    1.867275    -1.672126    -26.201456    0.351028    1.869896    15.859445    -24.842939    -5.927715    
95.485817    83.124298    126.823654    -1.410931    0.177519    -101.125366    3.785614    6.831162    2.893571    -8.113241    4.354715    29.738194    -2.589189    -11.098829    29.351877    -1.560431    8.378497    11.339283    -56.006718    32.054356    -27.156935    6.231154    -0.172990    -22.952042    -2.792070    1.257466    -6.731140    -3.780252    9.023608    -4.542993    52.701283    41.642193    24.330269    -6.128306    -1.516004    29.990717    -4.044426    -0.131158    7.312794    5.425844    -14.127685    -45.982918    -8.103677    6.715978    61.734398    -3.667739    4.461401    19.309662    -1.013488    0.604338    4.091984    6.770379    3.284039    -2.662936    -3.822551    1.865829    -1.631212    -26.266859    0.395461    1.852030    15.902399    -24.912346    -5.930151    
95.482727    83.124557    126.820686    -1.409439    0.172259    -101.133156    3.701459    6.960836    3.147924    -7.908504    4.294885    29.590115    -2.665150    -11.188682    29.238119    -1.303853    8.324558    11.068802    -56.104118    32.023979    -27.272921    6.198868    -0.448450    -22.971619    -3.833512    0.981479    -5.052365    -3.568360    8.887445    -4.868531    52.628262    41.693069    24.327408    -6.099289    -1.505213    30.030140    -3.900693    -0.117630    7.345325    5.425600    -14.125678    -45.970795    -8.103918    6.709888    61.729553    -3.668051    4.444697    19.328539    -0.977386    0.618610    4.018231    6.773079    3.282800    -2.662931    -3.839494    1.868884    -1.652589    -26.211372    0.352507    1.866673    15.873472    -24.865852    -5.916086    
95.481041    83.123650    126.819359    -1.413620    0.172845    -101.127754    3.794478    6.833057    2.884065    -8.103288    4.355903    29.732933    -2.614421    -11.096678    29.348555    -1.569863    8.382155    11.362270    -56.009869    32.062836    -27.167316    6.223801    -0.161157    -22.947178    -2.776844    1.266688    -6.734080    -3.780231    9.030926    -4.554536    52.709366    41.660213    24.340561    -6.113616    -1.496819    29.972374    -3.716641    -0.099378    7.407178    5.423487    -14.121463    -45.980129    -8.102796    6.713163    61.742935    -3.666245    4.450208    19.310497    -0.991738    0.616518    4.054799    6.770205    3.290886    -2.652083    -3.830842    1.864804    -1.653916    -26.207706    0.354030    1.855139    15.869930    -24.859831    -5.931175    
95.430145    83.136391    126.854118    -1.517396    0.144103    -101.088402    3.760167    6.935029    2.814299    -8.106258    4.348260    29.735538    -2.607685    -11.088154    29.351322    -1.563604    8.387115    11.360339    -56.040928    32.062443    -27.153408    6.238304    -0.157464    -22.952213    -2.773593    1.274036    -6.757966    -3.770919    9.032865    -4.573412    52.679131    41.692696    24.372490    -6.110799    -1.483893    29.962646    -3.547061    -0.077448    7.435852    5.293259    -13.972156    -46.036346    -8.017753    6.709131    61.732723    -3.354144    4.331958    19.342653    -0.913274    0.600231    3.798874    6.660678    3.447175    -2.774973    -3.763512    1.801725    -1.575230    -26.176126    0.345624    1.835908    15.847748    -24.824663    -5.896967    
95.478485    83.122917    126.813194    -1.412171    0.171487    -101.119705    3.718173    6.950216    3.123804    -7.815799    4.267232    29.563517    -2.738940    -11.019262    29.233664    -1.293437    8.354485    11.061923    -56.141190    32.024818    -27.236465    6.237435    -0.149915    -22.893938    -2.770589    1.278147    -6.771102    -3.555766    8.920786    -4.876517    52.635612    41.706066    24.352545    -6.089246    -1.450087    29.992241    -3.418040    -0.039909    7.456316    5.422201    -14.126813    -45.985668    -8.114311    6.708708    61.736206    -3.354475    4.341883    19.337194    -0.935695    0.579938    3.821261    6.779012    3.289378    -2.672751    -3.840309    1.868264    -1.648765    -26.229658    0.354133    1.861939    15.879593    -24.875589    -5.923876    
95.477577    83.122391    126.811768    -1.413186    0.170255    -101.115646    3.722478    6.952410    3.114489    -7.823850    4.270188    29.568707    -2.734238    -11.029808    29.237093    -1.305780    8.358182    11.080723    -56.119419    32.039051    -27.253540    6.232891    -0.160474    -22.917770    -2.798993    1.269450    -6.760139    -3.552918    8.921310    -4.883033    52.648701    41.719627    24.353863    -6.103173    -1.425607    29.986002    -3.261973    -0.002223    7.461536    5.423550    -14.124196    -45.990078    -8.105978    6.717807    61.728188    -3.675230    4.469873    19.314615    -1.012345    0.592735    4.065179    6.778623    3.289630    -2.670395    -3.838894    1.871292    -1.645153    -26.245975    0.363039    1.850003    15.878463    -24.873636    -5.930443    
